<?xml version="1.0" encoding="UTF-8" standalone="no"?>
<!-- Created with Inkscape (http://www.inkscape.org/) -->

<svg
   xmlns:dc="http://purl.org/dc/elements/1.1/"
   xmlns:cc="http://creativecommons.org/ns#"
   xmlns:rdf="http://www.w3.org/1999/02/22-rdf-syntax-ns#"
   xmlns:svg="http://www.w3.org/2000/svg"
   xmlns="http://www.w3.org/2000/svg"
   xmlns:sodipodi="http://sodipodi.sourceforge.net/DTD/sodipodi-0.dtd"
   xmlns:inkscape="http://www.inkscape.org/namespaces/inkscape"
   width="64"
   height="64"
   viewBox="0 0 64.000001 64.000001"
   id="svg2"
   version="1.1"
   inkscape:version="0.91 r13725"
   sodipodi:docname="books.svg">
  <defs
     id="defs4" />
  <sodipodi:namedview
     id="base"
     pagecolor="#ffffff"
     bordercolor="#666666"
     borderopacity="1.0"
     inkscape:pageopacity="0.0"
     inkscape:pageshadow="2"
     inkscape:zoom="8.2312202"
     inkscape:cx="7.1276069"
     inkscape:cy="35.750489"
     inkscape:document-units="px"
     inkscape:current-layer="layer1"
     showgrid="true"
     units="px"
     inkscape:window-width="1366"
     inkscape:window-height="709"
     inkscape:window-x="0"
     inkscape:window-y="27"
     inkscape:window-maximized="1">
    <inkscape:grid
       type="xygrid"
       id="grid4136"
       spacingx="2"
       spacingy="2"
       enabled="false" />
    <inkscape:grid
       type="xygrid"
       id="grid4138"
       color="#ff001d"
       opacity="0.1254902"
       empcolor="#ff0f00"
       empopacity="0.25098039"
       visible="true"
       enabled="false" />
    <inkscape:grid
       type="xygrid"
       id="grid4264"
       color="#00ff02"
       opacity="0.1254902"
       empcolor="#00ff05"
       empopacity="0.25098039"
       spacingx="0.50000001"
       spacingy="0.50000001"
       snapvisiblegridlinesonly="true"
       enabled="false" />
  </sodipodi:namedview>
  <metadata
     id="metadata7">
    <rdf:RDF>
      <cc:Work
         rdf:about="">
        <dc:format>image/svg+xml</dc:format>
        <dc:type
           rdf:resource="http://purl.org/dc/dcmitype/StillImage" />
        <dc:title />
      </cc:Work>
    </rdf:RDF>
  </metadata>
  <g
     inkscape:label="Layer 1"
     inkscape:groupmode="layer"
     id="layer1"
     transform="translate(0,-988.36216)">
    <path
       style="fill:#2d2d2d;fill-opacity:0.70588235;fill-rule:evenodd;stroke:none;stroke-width:1px;stroke-linecap:butt;stroke-linejoin:miter;stroke-opacity:1"
       d="m 32,1049.3622 -24.0000001,-12 24.0000001,-12 23.999999,12 z"
       id="path4201"
       inkscape:connector-curvature="0"
       sodipodi:nodetypes="ccccc" />
    <path
       style="fill:#2d2d2d;fill-opacity:1;fill-rule:evenodd;stroke:none;stroke-width:1px;stroke-linecap:butt;stroke-linejoin:miter;stroke-opacity:1"
       d="m 32,991.36212 -24.0000001,12.00008 0,30 24.0000001,12 23.999999,-12 0,-30 z"
       id="path4199"
       inkscape:connector-curvature="0" />
    <path
       style="fill:#f5f5f5;fill-opacity:1;fill-rule:evenodd;stroke:none;stroke-width:1px;stroke-linecap:butt;stroke-linejoin:miter;stroke-opacity:1"
       d="m 32,992.36212 -23,11.50008 23,11.5 23,-11.5 z"
       id="path4262"
       inkscape:connector-curvature="0"
       sodipodi:nodetypes="ccccc" />
    <path
       style="fill:#e9bc72;fill-opacity:1;fill-rule:evenodd;stroke:none;stroke-width:1px;stroke-linecap:butt;stroke-linejoin:miter;stroke-opacity:1"
       d="m 9,1003.8622 23,11.5 0,29 -23,-11.5 z"
       id="path4266"
       inkscape:connector-curvature="0"
       sodipodi:nodetypes="ccccc" />
    <path
       style="fill:#e1e1e1;fill-opacity:1;fill-rule:evenodd;stroke:none;stroke-width:1px;stroke-linecap:butt;stroke-linejoin:miter;stroke-opacity:1"
       d="m 55,1003.8622 -23,11.5 0,29 23,-11.5 z"
       id="path4266-1"
       inkscape:connector-curvature="0"
       sodipodi:nodetypes="ccccc" />
    <path
       style="fill:#916317;fill-opacity:1;fill-rule:evenodd;stroke:none;stroke-width:1px;stroke-linecap:butt;stroke-linejoin:miter;stroke-opacity:1"
       d="m 32,1015.3622 0,29 1,-0.5 0,-29 z"
       id="path4141"
       inkscape:connector-curvature="0" />
    <path
       style="fill:#808080;fill-opacity:1;fill-rule:evenodd;stroke:none;stroke-width:1px;stroke-linecap:butt;stroke-linejoin:miter;stroke-opacity:1"
       d="m 34,1014.3622 0,29 1,-0.5 0,-29 z"
       id="path4141-6"
       inkscape:connector-curvature="0" />
    <path
       style="fill:#808080;fill-opacity:1;fill-rule:evenodd;stroke:none;stroke-width:1px;stroke-linecap:butt;stroke-linejoin:miter;stroke-opacity:1"
       d="m 36,1013.3622 0,29 1,-0.5 0,-29 z"
       id="path4141-5"
       inkscape:connector-curvature="0" />
    <path
       style="fill:#916317;fill-opacity:1;fill-rule:evenodd;stroke:none;stroke-width:1px;stroke-linecap:butt;stroke-linejoin:miter;stroke-opacity:1"
       d="m 38,1012.3622 0,29 1,-0.5 0,-29 z"
       id="path4141-0"
       inkscape:connector-curvature="0" />
    <path
       style="fill:#916317;fill-opacity:1;fill-rule:evenodd;stroke:none;stroke-width:1px;stroke-linecap:butt;stroke-linejoin:miter;stroke-opacity:1"
       d="m 40,1011.3622 0,29 1,-0.5 0,-29 z"
       id="path4141-9"
       inkscape:connector-curvature="0" />
    <path
       style="fill:#808080;fill-opacity:1;fill-rule:evenodd;stroke:none;stroke-width:1px;stroke-linecap:butt;stroke-linejoin:miter;stroke-opacity:1"
       d="m 42,1010.3622 0,29 1,-0.5 0,-29 z"
       id="path4141-94"
       inkscape:connector-curvature="0" />
    <path
       style="fill:#808080;fill-opacity:1;fill-rule:evenodd;stroke:none;stroke-width:1px;stroke-linecap:butt;stroke-linejoin:miter;stroke-opacity:1"
       d="m 44,1009.3622 0,29 1,-0.5 0,-29 z"
       id="path4141-2"
       inkscape:connector-curvature="0" />
    <path
       style="fill:#916317;fill-opacity:1;fill-rule:evenodd;stroke:none;stroke-width:1px;stroke-linecap:butt;stroke-linejoin:miter;stroke-opacity:1"
       d="m 46,1008.3622 0,29 1,-0.5 0,-29 z"
       id="path4141-1"
       inkscape:connector-curvature="0" />
    <path
       style="fill:#916317;fill-opacity:1;fill-rule:evenodd;stroke:none;stroke-width:1px;stroke-linecap:butt;stroke-linejoin:miter;stroke-opacity:1"
       d="m 48,1007.3622 0,29 1,-0.5 0,-29 z"
       id="path4141-95"
       inkscape:connector-curvature="0" />
    <path
       style="fill:#808080;fill-opacity:1;fill-rule:evenodd;stroke:none;stroke-width:1px;stroke-linecap:butt;stroke-linejoin:miter;stroke-opacity:1"
       d="m 50,1006.3622 0,29 1,-0.5 0,-29 z"
       id="path4141-10"
       inkscape:connector-curvature="0" />
    <path
       style="fill:#808080;fill-opacity:1;fill-rule:evenodd;stroke:none;stroke-width:1px;stroke-linecap:butt;stroke-linejoin:miter;stroke-opacity:1"
       d="m 52,1005.3622 0,29 1,-0.5 0,-29 z"
       id="path4141-8"
       inkscape:connector-curvature="0" />
    <path
       style="fill:#949494;fill-opacity:1;fill-rule:evenodd;stroke:none;stroke-width:1px;stroke-linecap:butt;stroke-linejoin:miter;stroke-opacity:1"
       d="m 11,1002.8622 23,11.5 1,-0.5 -23,-11.5 z"
       id="path4212-0"
       inkscape:connector-curvature="0" />
    <path
       style="fill:#949494;fill-opacity:1;fill-rule:evenodd;stroke:none;stroke-width:1px;stroke-linecap:butt;stroke-linejoin:miter;stroke-opacity:1"
       d="m 13,1001.8622 23,11.5 1,-0.5 -23,-11.5 z"
       id="path4212-9"
       inkscape:connector-curvature="0" />
    <path
       style="fill:#949494;fill-opacity:1;fill-rule:evenodd;stroke:none;stroke-width:1px;stroke-linecap:butt;stroke-linejoin:miter;stroke-opacity:1"
       d="m 19,998.86208 23,11.50012 1,-0.5 -23,-11.50012 z"
       id="path4212-1"
       inkscape:connector-curvature="0" />
    <path
       style="fill:#949494;fill-opacity:1;fill-rule:evenodd;stroke:none;stroke-width:1px;stroke-linecap:butt;stroke-linejoin:miter;stroke-opacity:1"
       d="m 21,997.86208 23,11.50012 1,-0.5 -23,-11.50012 z"
       id="path4212-24"
       inkscape:connector-curvature="0" />
    <path
       style="fill:#949494;fill-opacity:1;fill-rule:evenodd;stroke:none;stroke-width:1px;stroke-linecap:butt;stroke-linejoin:miter;stroke-opacity:1"
       d="m 27,994.86212 23,11.50008 1,-0.5 -23,-11.50008 z"
       id="path4212-70"
       inkscape:connector-curvature="0" />
    <path
       style="fill:#949494;fill-opacity:1;fill-rule:evenodd;stroke:none;stroke-width:1px;stroke-linecap:butt;stroke-linejoin:miter;stroke-opacity:1"
       d="m 29,993.86212 23,11.50008 1,-0.5 -23,-11.50008 z"
       id="path4212-6"
       inkscape:connector-curvature="0" />
    <path
       style="fill:#916317;fill-opacity:1;fill-rule:evenodd;stroke:none;stroke-width:1px;stroke-linecap:butt;stroke-linejoin:miter;stroke-opacity:1"
       d="m 54,1004.3622 0,29 1,-0.5 0,-29 z"
       id="path4141-8-7"
       inkscape:connector-curvature="0" />
    <path
       style="fill:#6b6b6b;fill-rule:evenodd;stroke:none;stroke-width:1px;stroke-linecap:butt;stroke-linejoin:miter;stroke-opacity:1;fill-opacity:1"
       d="m 11,1003.8622 1,0.5 21,-10.50004 -1,-0.5 z"
       id="path4352"
       inkscape:connector-curvature="0" />
    <path
       style="fill:#c5861f;fill-opacity:1;fill-rule:evenodd;stroke:none;stroke-width:1px;stroke-linecap:butt;stroke-linejoin:miter;stroke-opacity:1"
       d="m 13,1005.8622 -1,-0.5 0,29 1,0.5 z"
       id="path4164"
       inkscape:connector-curvature="0" />
    <path
       style="fill:#575757;fill-opacity:1;fill-rule:evenodd;stroke:none;stroke-width:1px;stroke-linecap:butt;stroke-linejoin:miter;stroke-opacity:1"
       d="m 39,1011.8622 0,29 1,-0.5 0,-29 z"
       id="path4141-0-7"
       inkscape:connector-curvature="0" />
    <path
       style="fill:#575757;fill-opacity:1;fill-rule:evenodd;stroke:none;stroke-width:1px;stroke-linecap:butt;stroke-linejoin:miter;stroke-opacity:1"
       d="m 47,1007.8622 0,29 1,-0.5 0,-29 z"
       id="path4141-0-7-8"
       inkscape:connector-curvature="0" />
    <path
       style="fill:#6b6b6b;fill-opacity:1;fill-rule:evenodd;stroke:none;stroke-width:1px;stroke-linecap:butt;stroke-linejoin:miter;stroke-opacity:1"
       d="m 16,1000.3622 23,11.5 1,-0.5 -23,-11.50014 z"
       id="path4212-2-8"
       inkscape:connector-curvature="0" />
    <path
       style="fill:#6b6b6b;fill-opacity:1;fill-rule:evenodd;stroke:none;stroke-width:1px;stroke-linecap:butt;stroke-linejoin:miter;stroke-opacity:1"
       d="m 24,996.3622 23,11.5 1,-0.5 -23,-11.50014 z"
       id="path4212-2-8-8"
       inkscape:connector-curvature="0" />
    <ellipse
       style="opacity:1;fill:#c5861f;fill-opacity:1;stroke:none;stroke-width:0.5;stroke-miterlimit:4;stroke-dasharray:none;stroke-opacity:0.65700486"
       id="path4172"
       cx="24.534925"
       cy="1011.3289"
       rx="2.7261028"
       ry="4.5"
       transform="matrix(0.91706007,0.39874907,0,1,0,0)" />
    <path
       style="fill:#ffffff;fill-opacity:1;fill-rule:evenodd;stroke:none;stroke-width:1px;stroke-linecap:butt;stroke-linejoin:miter;stroke-opacity:1"
       d="m 17,1025.8622 0,6 11,5.5 0,-6 z"
       id="path4229"
       inkscape:connector-curvature="0" />
    <path
       style="fill:#575757;fill-opacity:1;fill-rule:evenodd;stroke:none;stroke-width:1px;stroke-linecap:butt;stroke-linejoin:miter;stroke-opacity:1"
       d="m 18,1031.3622 9,4.5 0,-1 -9,-4.5 z"
       id="path4249"
       inkscape:connector-curvature="0" />
    <path
       style="fill:#575757;fill-opacity:1;fill-rule:evenodd;stroke:none;stroke-width:1px;stroke-linecap:butt;stroke-linejoin:miter;stroke-opacity:1"
       d="m 18,1029.3622 9,4.5 0,-1 -9,-4.5 z"
       id="path4251"
       inkscape:connector-curvature="0" />
    <path
       style="fill:#b37a1d;fill-opacity:1;fill-rule:evenodd;stroke:none;stroke-width:1px;stroke-linecap:butt;stroke-linejoin:miter;stroke-opacity:1"
       d="m 54,1004.3622 1,-0.5 -23,-11.50004 -23,11.50004 23,11.5 1,-0.5 -22,-11 5,-2.5 22,11 1,-0.5 -22,-11 1,-0.5 22,11 1,-0.5 -22,-11.00004 5,-2.5 22,11.00004 1,-0.5 -22,-11.00004 1,-0.5 22,11.00004 1,-0.5 -22,-11.00004 5,-2.5 z"
       id="path4232"
       inkscape:connector-curvature="0" />
  </g>
</svg>
