<?xml version="1.0" encoding="UTF-8" standalone="no"?>
<!-- Created with Inkscape (http://www.inkscape.org/) -->

<svg
   xmlns:dc="http://purl.org/dc/elements/1.1/"
   xmlns:cc="http://creativecommons.org/ns#"
   xmlns:rdf="http://www.w3.org/1999/02/22-rdf-syntax-ns#"
   xmlns:svg="http://www.w3.org/2000/svg"
   xmlns="http://www.w3.org/2000/svg"
   xmlns:sodipodi="http://sodipodi.sourceforge.net/DTD/sodipodi-0.dtd"
   xmlns:inkscape="http://www.inkscape.org/namespaces/inkscape"
   width="64"
   height="64"
   viewBox="0 0 64.000001 64.000001"
   id="svg2"
   version="1.1"
   inkscape:version="0.91 r13725"
   sodipodi:docname="darth-wader.svg">
  <defs
     id="defs4" />
  <sodipodi:namedview
     id="base"
     pagecolor="#ffffff"
     bordercolor="#666666"
     borderopacity="1.0"
     inkscape:pageopacity="0.0"
     inkscape:pageshadow="2"
     inkscape:zoom="8.0000001"
     inkscape:cx="38.618314"
     inkscape:cy="26.277383"
     inkscape:document-units="px"
     inkscape:current-layer="layer1"
     showgrid="true"
     units="px"
     inkscape:window-width="1366"
     inkscape:window-height="709"
     inkscape:window-x="0"
     inkscape:window-y="27"
     inkscape:window-maximized="1">
    <inkscape:grid
       type="xygrid"
       id="grid4136"
       spacingx="2"
       spacingy="2"
       enabled="false" />
    <inkscape:grid
       type="xygrid"
       id="grid4138"
       color="#ff001d"
       opacity="0.1254902"
       empcolor="#ff0f00"
       empopacity="0.25098039"
       visible="true"
       enabled="false" />
    <inkscape:grid
       type="xygrid"
       id="grid4264"
       color="#00ff02"
       opacity="0.1254902"
       empcolor="#00ff05"
       empopacity="0.25098039"
       spacingx="0.50000001"
       spacingy="0.50000001"
       snapvisiblegridlinesonly="true"
       enabled="false" />
  </sodipodi:namedview>
  <metadata
     id="metadata7">
    <rdf:RDF>
      <cc:Work
         rdf:about="">
        <dc:format>image/svg+xml</dc:format>
        <dc:type
           rdf:resource="http://purl.org/dc/dcmitype/StillImage" />
        <dc:title></dc:title>
      </cc:Work>
    </rdf:RDF>
  </metadata>
  <g
     inkscape:label="Layer 1"
     inkscape:groupmode="layer"
     id="layer1"
     transform="translate(0,-988.36216)">
    <path
       style="fill:#2d2d2d;fill-opacity:0.70588235;fill-rule:evenodd;stroke:none;stroke-width:1px;stroke-linecap:butt;stroke-linejoin:miter;stroke-opacity:1"
       d="m 32,1049.3622 -24.0000001,-12 24.0000001,-12 23.999999,12 z"
       id="path4201"
       inkscape:connector-curvature="0"
       sodipodi:nodetypes="ccccc" />
    <path
       style="fill:#2d2d2d;fill-opacity:1;fill-rule:evenodd;stroke:none;stroke-width:1px;stroke-linecap:butt;stroke-linejoin:miter;stroke-opacity:1"
       d="m 32,991.36212 -24.0000001,12.00008 0,30 24.0000001,12 23.999999,-12 0,-30 z"
       id="path4199"
       inkscape:connector-curvature="0" />
    <path
       style="fill:#4d4d4d;fill-opacity:1;fill-rule:evenodd;stroke:none;stroke-width:1px;stroke-linecap:butt;stroke-linejoin:miter;stroke-opacity:1"
       d="m 32,992.36212 -23,11.50008 23,11.5 23,-11.5 z"
       id="path4262"
       inkscape:connector-curvature="0"
       sodipodi:nodetypes="ccccc" />
    <path
       style="fill:#575757;fill-opacity:1;fill-rule:evenodd;stroke:none;stroke-width:1px;stroke-linecap:butt;stroke-linejoin:miter;stroke-opacity:1"
       d="m 9,1003.8622 23,11.5 0,29 -23,-11.5 z"
       id="path4266"
       inkscape:connector-curvature="0"
       sodipodi:nodetypes="ccccc" />
    <path
       style="fill:#393939;fill-opacity:1;fill-rule:evenodd;stroke:none;stroke-width:1px;stroke-linecap:butt;stroke-linejoin:miter;stroke-opacity:1"
       d="m 55,1003.8622 -23,11.5 0,29 23,-11.5 z"
       id="path4266-1"
       inkscape:connector-curvature="0"
       sodipodi:nodetypes="ccccc" />
    <path
       style="fill:#2d2d2d;fill-opacity:1;fill-rule:evenodd;stroke:none;stroke-width:1px;stroke-linecap:butt;stroke-linejoin:miter;stroke-opacity:1"
       d="M 15 28.5 C 14 28.5 13 29 13 29.5 L 12 34 L 9 44.5 L 12 46 L 20 38 L 20 33 C 19 32 16 28.5 15 28.5 z M 21 33.5 L 21 38.5 L 29 54.5 L 32 56 L 29 42.5 L 28 37 C 28 36.5 27 34.5 26 34 C 25 33.5 22 33.5 21 33.5 z "
       transform="translate(0,988.36216)"
       id="path4254" />
    <path
       style="fill:#575757;fill-rule:evenodd;stroke:none;stroke-width:1px;stroke-linecap:butt;stroke-linejoin:miter;stroke-opacity:1;fill-opacity:1"
       d="m 45,998.86216 -3,-1.5 -23,11.50004 3,1.5 z"
       id="path4195"
       inkscape:connector-curvature="0" />
    <path
       style="fill:#616161;fill-rule:evenodd;stroke:none;stroke-width:1px;stroke-linecap:butt;stroke-linejoin:miter;stroke-opacity:1;fill-opacity:1"
       d="m 19,1008.8622 0,9 3,1.5 0,-9 z"
       id="path4258"
       inkscape:connector-curvature="0" />
    <path
       style="fill:#2d2d2d;fill-rule:evenodd;stroke:none;stroke-width:1px;stroke-linecap:butt;stroke-linejoin:miter;stroke-opacity:1;fill-opacity:1"
       d="m 22,1019.3622 -1,-0.5 0,-9 1,0.5 z"
       id="path4260"
       inkscape:connector-curvature="0" />
    <path
       style="fill:#2d2d2d;fill-opacity:1;fill-rule:evenodd;stroke:none;stroke-width:1px;stroke-linecap:butt;stroke-linejoin:miter;stroke-opacity:1"
       d="m 32,1025.3622 -2,-1 c -0.5,-0.5 -1,-2.5 -2,-3 -1,-0.5 -6,-1.5 -7,-1.5 l -1,-0.5 c -1.043474,-1.029 -5.5,-4.5 -7,-4.5 l -2,0 -2,-1 0,-1 2,1 2,0 c 1.5,0 6,3.5 7,4.5 l 1,0.5 c 1,0 6,1 7,1.5 1,0.5 1.5,2.5 2,3 l 2,1 z"
       id="path4256"
       inkscape:connector-curvature="0"
       sodipodi:nodetypes="ccccccccccccccccc" />
    <path
       style="fill:#2d2d2d;fill-rule:evenodd;stroke:none;stroke-width:1px;stroke-linecap:butt;stroke-linejoin:miter;stroke-opacity:1;fill-opacity:1"
       d="m 21,1009.8622 1,0.5 23,-11.50004 -1,-0.5 z"
       id="path4263"
       inkscape:connector-curvature="0" />
    <path
       style="fill:#575757;fill-opacity:1;fill-rule:evenodd;stroke:none;stroke-width:1px;stroke-linecap:butt;stroke-linejoin:miter;stroke-opacity:1"
       d="m 20,1026.3622 c -1,0 -4,0 -5,-0.5 -1,-0.5 -3,-3 -3,-3.5 l 0,1 c 0,0.5 2,3 3,3.5 1,0.5 3.943856,0.5396 5,0.5 z"
       id="path4268"
       inkscape:connector-curvature="0"
       sodipodi:nodetypes="ccccccc" />
    <path
       style="fill:#575757;fill-opacity:1;fill-rule:evenodd;stroke:none;stroke-width:1px;stroke-linecap:butt;stroke-linejoin:miter;stroke-opacity:1"
       d="m 21,1026.8622 c 1,1 4,4.5 5,4.5 1,0 3,0 3,-0.5 l 0,1 c 0,0.5 -2,0.5 -3,0.5 -1,0 -4,-3.5 -5,-4.5 z"
       id="path4270"
       inkscape:connector-curvature="0"
       sodipodi:nodetypes="ccccccc" />
    <path
       style="fill:#2d2d2d;fill-rule:evenodd;stroke:none;stroke-width:1px;stroke-linecap:butt;stroke-linejoin:miter;stroke-opacity:1;fill-opacity:1"
       d="m 20,1027.3622 1,0.5 0,10 -1,-0.5 z"
       id="path4272"
       inkscape:connector-curvature="0" />
    <path
       style="fill:#2d2d2d;fill-rule:evenodd;stroke:none;stroke-width:1px;stroke-linecap:butt;stroke-linejoin:miter;stroke-opacity:1;fill-opacity:1"
       d="m 19,1036.8622 -1,-0.5 0,-7 1,0.5 z"
       id="path4274"
       inkscape:connector-curvature="0" />
    <path
       style="fill:#2d2d2d;fill-rule:evenodd;stroke:none;stroke-width:1px;stroke-linecap:butt;stroke-linejoin:miter;stroke-opacity:1;fill-opacity:1"
       d="m 17,1035.8622 -1,-0.5 0,-4 1,0.5 z"
       id="path4276"
       inkscape:connector-curvature="0" />
    <path
       style="fill:#2d2d2d;fill-rule:evenodd;stroke:none;stroke-width:1px;stroke-linecap:butt;stroke-linejoin:miter;stroke-opacity:1;fill-opacity:1"
       d="m 15,1034.8622 -1,-0.5 0,-1 1,0.5 z"
       id="path4278"
       inkscape:connector-curvature="0" />
    <path
       style="fill:#2d2d2d;fill-opacity:1;fill-rule:evenodd;stroke:none;stroke-width:1px;stroke-linecap:butt;stroke-linejoin:miter;stroke-opacity:1"
       d="m 23,1038.8622 -1,-0.5 0,-7 1,0.5 z"
       id="path4274-0"
       inkscape:connector-curvature="0" />
    <path
       style="fill:#2d2d2d;fill-opacity:1;fill-rule:evenodd;stroke:none;stroke-width:1px;stroke-linecap:butt;stroke-linejoin:miter;stroke-opacity:1"
       d="m 25,1039.8622 -1,-0.5 0,-4 1,0.5 z"
       id="path4276-6"
       inkscape:connector-curvature="0" />
    <path
       style="fill:#2d2d2d;fill-opacity:1;fill-rule:evenodd;stroke:none;stroke-width:1px;stroke-linecap:butt;stroke-linejoin:miter;stroke-opacity:1"
       d="m 27,1040.8622 -1,-0.5 0,-1 1,0.5 z"
       id="path4278-6"
       inkscape:connector-curvature="0" />
    <path
       style="fill:#2d2d2d;fill-rule:evenodd;stroke:none;stroke-width:1px;stroke-linecap:butt;stroke-linejoin:miter;stroke-opacity:1;fill-opacity:1"
       d="m 32,1024.3622 23,-11.5 0,1 -23,11.5 z"
       id="path4342"
       inkscape:connector-curvature="0" />
  </g>
</svg>
