<?xml version="1.0" encoding="UTF-8" standalone="no"?>
<!-- Created with Inkscape (http://www.inkscape.org/) -->

<svg
   xmlns:dc="http://purl.org/dc/elements/1.1/"
   xmlns:cc="http://creativecommons.org/ns#"
   xmlns:rdf="http://www.w3.org/1999/02/22-rdf-syntax-ns#"
   xmlns:svg="http://www.w3.org/2000/svg"
   xmlns="http://www.w3.org/2000/svg"
   xmlns:sodipodi="http://sodipodi.sourceforge.net/DTD/sodipodi-0.dtd"
   xmlns:inkscape="http://www.inkscape.org/namespaces/inkscape"
   width="64"
   height="64"
   viewBox="0 0 64.000001 64.000001"
   id="svg2"
   version="1.1"
   inkscape:version="0.91 r13725"
   sodipodi:docname="mailbox.svg">
  <defs
     id="defs4" />
  <sodipodi:namedview
     id="base"
     pagecolor="#ffffff"
     bordercolor="#666666"
     borderopacity="1.0"
     inkscape:pageopacity="0.0"
     inkscape:pageshadow="2"
     inkscape:zoom="5.4358835"
     inkscape:cx="57.056264"
     inkscape:cy="34.067463"
     inkscape:document-units="px"
     inkscape:current-layer="layer1"
     showgrid="true"
     units="px"
     inkscape:window-width="1366"
     inkscape:window-height="709"
     inkscape:window-x="0"
     inkscape:window-y="27"
     inkscape:window-maximized="1"
     showguides="false">
    <inkscape:grid
       type="xygrid"
       id="grid4136"
       spacingx="2"
       spacingy="2"
       enabled="false" />
    <inkscape:grid
       type="xygrid"
       id="grid4138"
       color="#ff001d"
       opacity="0.1254902"
       empcolor="#ff0f00"
       empopacity="0.25098039"
       visible="true"
       enabled="false" />
    <inkscape:grid
       type="xygrid"
       id="grid4264"
       color="#00ff02"
       opacity="0.1254902"
       empcolor="#00ff05"
       empopacity="0.25098039"
       spacingx="0.50000001"
       spacingy="0.50000001"
       snapvisiblegridlinesonly="true"
       enabled="false" />
  </sodipodi:namedview>
  <metadata
     id="metadata7">
    <rdf:RDF>
      <cc:Work
         rdf:about="">
        <dc:format>image/svg+xml</dc:format>
        <dc:type
           rdf:resource="http://purl.org/dc/dcmitype/StillImage" />
        <dc:title />
      </cc:Work>
    </rdf:RDF>
  </metadata>
  <g
     inkscape:label="Layer 1"
     inkscape:groupmode="layer"
     id="layer1"
     transform="translate(0,-988.36216)">
    <path
       style="fill:#2d2d2d;fill-opacity:0.70588235;fill-rule:evenodd;stroke:none;stroke-width:1px;stroke-linecap:butt;stroke-linejoin:miter;stroke-opacity:1"
       d="m 32,1049.3622 -24.0000001,-12 24.0000001,-12 23.999999,12 z"
       id="path4201"
       inkscape:connector-curvature="0"
       sodipodi:nodetypes="ccccc" />
    <path
       style="fill:#2d2d2d;fill-opacity:1;fill-rule:evenodd;stroke:none;stroke-width:1px;stroke-linecap:butt;stroke-linejoin:miter;stroke-opacity:1"
       d="m 32,991.36212 -24.0000001,12.00008 0,30 24.0000001,12 23.999999,-12 0,-30 z"
       id="path4199"
       inkscape:connector-curvature="0" />
    <path
       style="fill:#4cbadc;fill-opacity:1;fill-rule:evenodd;stroke:none;stroke-width:1px;stroke-linecap:butt;stroke-linejoin:miter;stroke-opacity:1"
       d="m 32,992.36212 -23,11.50008 23,11.5 23,-11.5 z"
       id="path4262"
       inkscape:connector-curvature="0"
       sodipodi:nodetypes="ccccc" />
    <path
       style="fill:#5dc0df;fill-opacity:1;fill-rule:evenodd;stroke:none;stroke-width:1px;stroke-linecap:butt;stroke-linejoin:miter;stroke-opacity:1"
       d="m 9,1003.8622 23,11.5 0,29 -23,-11.5 z"
       id="path4266"
       inkscape:connector-curvature="0"
       sodipodi:nodetypes="ccccc" />
    <path
       style="fill:#ffffff;fill-opacity:1;fill-rule:evenodd;stroke:none;stroke-width:1px;stroke-linecap:butt;stroke-linejoin:miter;stroke-opacity:1"
       d="m 13,1028.8622 2,-17 5.5,9.5 5.5,-4 2,19 z"
       id="path4244"
       inkscape:connector-curvature="0"
       sodipodi:nodetypes="cccccc" />
    <path
       style="fill:#2badd5;fill-opacity:1;fill-rule:evenodd;stroke:none;stroke-width:1px;stroke-linecap:butt;stroke-linejoin:miter;stroke-opacity:1"
       d="m 55,1003.8622 -23,11.5 0,29 23,-11.5 z"
       id="path4266-1"
       inkscape:connector-curvature="0"
       sodipodi:nodetypes="ccccc" />
    <path
       style="fill:#1d7793;fill-rule:evenodd;stroke:none;stroke-width:1px;stroke-linecap:butt;stroke-linejoin:miter;stroke-opacity:1;fill-opacity:1"
       d="m 43,997.86216 1,0.5 -23,11.50004 -1,-0.5 z"
       id="path4205"
       inkscape:connector-curvature="0" />
    <path
       style="fill:#f5f5f5;fill-rule:evenodd;stroke:none;stroke-width:1px;stroke-linecap:butt;stroke-linejoin:miter;stroke-opacity:1;fill-opacity:0.41176471"
       d="m 23,1010.8622 -5,-2.5 23,-11.50004 5,2.5 z"
       id="path4289"
       inkscape:connector-curvature="0" />
    <path
       style="fill:#2084a4;fill-rule:evenodd;stroke:none;stroke-width:1px;stroke-linecap:butt;stroke-linejoin:miter;stroke-opacity:1;fill-opacity:1"
       d="m 9,1004.8622 0,-1 23,11.5 0,1 z"
       id="path4207"
       inkscape:connector-curvature="0" />
    <path
       style="fill:#f5f5f5;fill-rule:evenodd;stroke:none;stroke-width:1px;stroke-linecap:butt;stroke-linejoin:miter;stroke-opacity:1;fill-opacity:0.60784316"
       d="m 40,996.36216 -23,11.50004 1,0.5 23,-11.50004 z"
       id="path4238"
       inkscape:connector-curvature="0" />
    <path
       style="fill:#f5f5f5;fill-opacity:0.60784316;fill-rule:evenodd;stroke:none;stroke-width:1px;stroke-linecap:butt;stroke-linejoin:miter;stroke-opacity:1"
       d="m 46,999.36216 -23,11.50004 1,0.5 23,-11.50004 z"
       id="path4238-7"
       inkscape:connector-curvature="0" />
    <path
       style="fill:#ffffff;fill-rule:evenodd;stroke:none;stroke-width:1px;stroke-linecap:butt;stroke-linejoin:miter;stroke-opacity:1;fill-opacity:0.60784316"
       d="m 17,1007.8622 0,8 0.5,-0.5 0.5,1 0.5,-0.5 0.5,1 0.5,-0.5 0.5,1 0.5,-0.5 0.5,1 0.5,-0.5 0.5,1 0.5,-0.5 0.5,1 0.5,-0.5 0.5,1 0,-8 -1,-0.5 0,7 -0.5,-1 -0.5,0.5 -0.5,-1 -0.5,0.5 -0.5,-1 -0.5,0.5 -0.5,-1 -0.5,0.5 -0.5,-1 -0.5,0.5 0,-7 z"
       id="path4293"
       inkscape:connector-curvature="0" />
    <path
       style="fill:#ffffff;fill-rule:evenodd;stroke:none;stroke-width:1px;stroke-linecap:butt;stroke-linejoin:miter;stroke-opacity:1;fill-opacity:0.41176471"
       d="m 18,1008.3622 0,7 0.5,-0.5 0.5,1 0.5,-0.5 0.5,1 0.5,-0.5 0.5,1 0.5,-0.5 0.5,1 0.5,-0.5 0.5,1 0,-7 z"
       id="path4295"
       inkscape:connector-curvature="0" />
  </g>
</svg>
