<?xml version="1.0" encoding="UTF-8" standalone="no"?>
<!-- Created with Inkscape (http://www.inkscape.org/) -->

<svg
   xmlns:dc="http://purl.org/dc/elements/1.1/"
   xmlns:cc="http://creativecommons.org/ns#"
   xmlns:rdf="http://www.w3.org/1999/02/22-rdf-syntax-ns#"
   xmlns:svg="http://www.w3.org/2000/svg"
   xmlns="http://www.w3.org/2000/svg"
   xmlns:sodipodi="http://sodipodi.sourceforge.net/DTD/sodipodi-0.dtd"
   xmlns:inkscape="http://www.inkscape.org/namespaces/inkscape"
   width="64"
   height="64"
   viewBox="0 0 64.000001 64.000001"
   id="svg2"
   version="1.1"
   inkscape:version="0.91 r13725"
   sodipodi:docname="pocket.svg">
  <defs
     id="defs4" />
  <sodipodi:namedview
     id="base"
     pagecolor="#ffffff"
     bordercolor="#666666"
     borderopacity="1.0"
     inkscape:pageopacity="0.0"
     inkscape:pageshadow="2"
     inkscape:zoom="2"
     inkscape:cx="47.402214"
     inkscape:cy="6.8348404"
     inkscape:document-units="px"
     inkscape:current-layer="layer1"
     showgrid="true"
     units="px"
     inkscape:window-width="1366"
     inkscape:window-height="709"
     inkscape:window-x="0"
     inkscape:window-y="27"
     inkscape:window-maximized="1">
    <inkscape:grid
       type="xygrid"
       id="grid4136"
       spacingx="2"
       spacingy="2"
       enabled="false" />
    <inkscape:grid
       type="xygrid"
       id="grid4138"
       color="#ff001d"
       opacity="0.1254902"
       empcolor="#ff0f00"
       empopacity="0.25098039"
       visible="true"
       enabled="false" />
    <inkscape:grid
       type="xygrid"
       id="grid4264"
       color="#00ff02"
       opacity="0.1254902"
       empcolor="#00ff05"
       empopacity="0.25098039"
       spacingx="0.50000001"
       spacingy="0.50000001"
       snapvisiblegridlinesonly="true"
       enabled="false" />
  </sodipodi:namedview>
  <metadata
     id="metadata7">
    <rdf:RDF>
      <cc:Work
         rdf:about="">
        <dc:format>image/svg+xml</dc:format>
        <dc:type
           rdf:resource="http://purl.org/dc/dcmitype/StillImage" />
        <dc:title />
      </cc:Work>
    </rdf:RDF>
  </metadata>
  <g
     inkscape:label="Layer 1"
     inkscape:groupmode="layer"
     id="layer1"
     transform="translate(0,-988.36216)">
    <path
       style="fill:#2d2d2d;fill-opacity:0.70588235;fill-rule:evenodd;stroke:none;stroke-width:1px;stroke-linecap:butt;stroke-linejoin:miter;stroke-opacity:1"
       d="m 32,1049.3622 -24.0000001,-12 24.0000001,-12 23.999999,12 z"
       id="path4201"
       inkscape:connector-curvature="0"
       sodipodi:nodetypes="ccccc" />
    <path
       style="fill:#2d2d2d;fill-opacity:1;fill-rule:evenodd;stroke:none;stroke-width:1px;stroke-linecap:butt;stroke-linejoin:miter;stroke-opacity:1"
       d="m 32,991.36212 -24.0000001,12.00008 0,30 24.0000001,12 23.999999,-12 0,-30 z"
       id="path4199"
       inkscape:connector-curvature="0" />
    <path
       style="fill:#50e2a4;fill-opacity:1;fill-rule:evenodd;stroke:none;stroke-width:1px;stroke-linecap:butt;stroke-linejoin:miter;stroke-opacity:1"
       d="m 32,992.36212 -23,11.50008 23,11.5 23,-11.5 z"
       id="path4262"
       inkscape:connector-curvature="0"
       sodipodi:nodetypes="ccccc" />
    <path
       style="fill:#8b052c;fill-opacity:1;fill-rule:evenodd;stroke:none;stroke-width:1px;stroke-linecap:butt;stroke-linejoin:miter;stroke-opacity:1"
       d="m 9,1003.8622 23,11.5 0,29 -23,-11.5 z"
       id="path4266"
       inkscape:connector-curvature="0"
       sodipodi:nodetypes="ccccc" />
    <path
       style="fill:#ef991b;fill-opacity:1;fill-rule:evenodd;stroke:none;stroke-width:1px;stroke-linecap:butt;stroke-linejoin:miter;stroke-opacity:1"
       d="m 55,1003.8622 -23,11.5 0,29 23,-11.5 z"
       id="path4266-1"
       inkscape:connector-curvature="0"
       sodipodi:nodetypes="ccccc" />
    <path
       style="fill:#37ada5;fill-rule:evenodd;stroke:none;stroke-width:1px;stroke-linecap:butt;stroke-linejoin:miter;stroke-opacity:1;fill-opacity:1"
       d="m 14,1006.3622 6,3 23,-11.50004 -6,-3 z"
       id="path4177"
       inkscape:connector-curvature="0" />
    <path
       style="fill:#eb094a;fill-opacity:1;fill-rule:evenodd;stroke:none;stroke-width:1px;stroke-linecap:butt;stroke-linejoin:miter;stroke-opacity:1"
       d="m 20,1009.3622 6,3 23,-11.5001 -6,-3.00002 z"
       id="path4177-2"
       inkscape:connector-curvature="0" />
    <path
       style="fill:#f2aa40;fill-opacity:1;fill-rule:evenodd;stroke:none;stroke-width:1px;stroke-linecap:butt;stroke-linejoin:miter;stroke-opacity:1"
       d="m 26,1012.3622 6,3 23,-11.5 -6,-3 z"
       id="path4177-7"
       inkscape:connector-curvature="0" />
    <path
       style="fill:#f71053;fill-opacity:1;fill-rule:evenodd;stroke:none;stroke-width:1px;stroke-linecap:butt;stroke-linejoin:miter;stroke-opacity:1"
       d="m 15,1011.8618 13,6.5 c 1.425414,0.7185 2,2 2,3 l 0,7 c 0,4.5 -4,6 -9,3.5 -5,-2.5 -8,-7.5 -8,-12 l 0,-7 c 0,-1 1,-1.5 2,-1 z"
       id="path4285"
       inkscape:connector-curvature="0"
       sodipodi:nodetypes="cccccccc" />
    <path
       style="fill:#5f5f5f;fill-opacity:1;fill-rule:evenodd;stroke:none;stroke-width:1px;stroke-linecap:butt;stroke-linejoin:miter;stroke-opacity:1"
       d="m 18.500253,1018.0983 c -0.654472,-1.3959 -2.589431,-1.4322 -2,0.088 l 4,8.8229 c 0.439024,0.879 1.613821,1.4062 2,0.9115 l 4,-5.1771 c 0.434959,-1.062 -1.280488,-2.6812 -2,-1.9115 l -3,4.6328 z"
       id="path4175-8"
       inkscape:connector-curvature="0"
       sodipodi:nodetypes="cccccccc" />
    <path
       style="fill:#5f5f5f;fill-opacity:1;fill-rule:evenodd;stroke:none;stroke-width:1px;stroke-linecap:butt;stroke-linejoin:miter;stroke-opacity:1"
       d="m 15.738281,1017.6072 1.011719,-0.505 5.558594,10.965 -0.902344,0.4473 z"
       id="path4211"
       inkscape:connector-curvature="0"
       sodipodi:nodetypes="ccccc" />
    <path
       style="fill:#5f5f5f;fill-opacity:1;fill-rule:evenodd;stroke:none;stroke-width:1px;stroke-linecap:butt;stroke-linejoin:miter;stroke-opacity:1"
       d="m 23.757812,1021.1669 0.96875,-0.4897 1.273438,1.185 -1,0.5 z"
       id="path4213"
       inkscape:connector-curvature="0"
       sodipodi:nodetypes="ccccc" />
    <path
       style="fill:#ffffff;fill-opacity:1;fill-rule:evenodd;stroke:none;stroke-width:1px;stroke-linecap:butt;stroke-linejoin:miter;stroke-opacity:1"
       d="m 17.5,1018.5982 c -0.654472,-1.3959 -2.589431,-1.4322 -2,0.088 l 4,8.8229 c 0.439024,0.879 1.613821,1.4062 2,0.9115 l 4,-5.1771 c 0.434959,-1.062 -1.280488,-2.6812 -2,-1.9115 l -3,4.6328 z"
       id="path4175"
       inkscape:connector-curvature="0"
       sodipodi:nodetypes="cccccccc" />
    <path
       style="fill:#ffffff;fill-opacity:1;fill-rule:evenodd;stroke:none;stroke-width:1px;stroke-linecap:butt;stroke-linejoin:miter;stroke-opacity:1"
       d="M 9 15.5 L 9 44.5 L 32 56 L 32 27 L 9 15.5 z M 13.265625 23.804688 C 13.5 23.8125 13.75 23.875 14 24 L 27 30.5 C 28.425414 31.2185 29 32.5 29 33.5 L 29 40.5 C 29 45 25 46.5 20 44 C 15 41.5 12 36.5 12 32 L 12 25 C 12 24.25 12.5625 23.78125 13.265625 23.804688 z "
       transform="translate(0,988.36216)"
       id="path4266-8" />
  </g>
</svg>
